M48
; DRILL file {KiCad (7.0.0)} date Fri Feb  9 22:05:57 2024
; FORMAT={-:-/ absolute / inch / decimal}
; #@! TF.CreationDate,2024-02-09T22:05:57+01:00
; #@! TF.GenerationSoftware,Kicad,Pcbnew,(7.0.0)
; #@! TF.FileFunction,Plated,1,2,PTH
FMAT,2
INCH
; #@! TA.AperFunction,Plated,PTH,ViaDrill
T1C0.0157
; #@! TA.AperFunction,Plated,PTH,ComponentDrill
T2C0.0295
; #@! TA.AperFunction,Plated,PTH,ComponentDrill
T3C0.0320
; #@! TA.AperFunction,Plated,PTH,ComponentDrill
T4C0.0394
; #@! TA.AperFunction,Plated,PTH,ComponentDrill
T5C0.0600
; #@! TA.AperFunction,Plated,PTH,ComponentDrill
T6C0.1200
%
G90
G05
T1
X2.4688Y-1.2188
X2.5312Y-1.2188
X3.9688Y-1.125
X7.9375Y-1.125
X8.6875Y-1.2188
X8.75Y-1.2188
T2
X2.8723Y-2.3981
X2.8723Y-2.4769
X8.2215Y-2.3981
X8.2215Y-2.4769
T3
X1.4375Y-1.2256
X1.4375Y-1.4619
X1.4375Y-1.9756
X1.4375Y-2.2119
X1.4375Y-2.7256
X1.4375Y-2.9619
X1.4375Y-3.4756
X1.4375Y-3.7119
X2.1875Y-1.2256
X2.1875Y-1.4619
X2.1875Y-1.9756
X2.1875Y-2.2119
X2.1875Y-2.7256
X2.1875Y-2.9619
X2.1875Y-3.4756
X2.1875Y-3.7119
X2.9375Y-1.2256
X2.9375Y-1.4619
X2.9375Y-1.9756
X2.9375Y-2.2119
X2.9375Y-2.7256
X2.9375Y-2.9619
X2.9375Y-3.4756
X2.9375Y-3.7119
X3.6875Y-3.4756
X3.6875Y-3.7119
X3.875Y-1.8506
X3.875Y-2.0869
X3.875Y-2.7881
X3.875Y-3.0244
X4.0Y-1.2256
X4.0Y-1.4619
X4.0312Y-3.4756
X4.0312Y-3.7119
X4.4375Y-1.2256
X4.4375Y-1.4619
X4.625Y-1.8506
X4.625Y-2.0869
X4.625Y-2.7881
X4.625Y-3.0244
X4.75Y-2.7881
X4.75Y-3.0244
X4.7812Y-1.8506
X4.7812Y-2.0869
X5.1875Y-1.2256
X5.1875Y-1.4619
X5.3438Y-3.4756
X5.3438Y-3.7119
X5.75Y-3.4756
X5.75Y-3.7119
X6.1562Y-1.2256
X6.1562Y-1.4619
X6.3438Y-1.8506
X6.3438Y-2.0869
X6.3438Y-2.7881
X6.3438Y-3.0244
X6.4688Y-1.8506
X6.4688Y-2.0869
X6.4688Y-2.7881
X6.4688Y-3.0244
X6.9062Y-1.2256
X6.9062Y-1.4619
X6.9062Y-3.4756
X6.9062Y-3.7119
X7.2188Y-1.8506
X7.2188Y-2.0869
X7.2188Y-2.7881
X7.2188Y-3.0244
X7.6562Y-3.4756
X7.6562Y-3.7119
X7.9766Y-1.2256
X7.9766Y-1.4619
X8.4062Y-1.2256
X8.4062Y-1.4619
X8.4062Y-1.9756
X8.4062Y-2.2119
X8.4062Y-2.7256
X8.4062Y-2.9619
X8.4062Y-3.4756
X8.4062Y-3.7119
X9.1562Y-1.2256
X9.1562Y-1.4619
X9.1562Y-1.9756
X9.1562Y-2.2119
X9.1562Y-2.7256
X9.1562Y-2.9619
X9.1562Y-3.4756
X9.1562Y-3.7119
X9.9062Y-1.2256
X9.9062Y-1.4619
X9.9062Y-1.9756
X9.9062Y-2.2119
X9.9062Y-2.7256
X9.9062Y-2.9619
X9.9062Y-3.4756
X9.9062Y-3.7119
T4
X2.9062Y-1.6061
X2.9062Y-1.7061
X3.2625Y-1.0437
X3.2625Y-1.1438
X3.2625Y-1.2437
X3.2625Y-1.3438
X3.2625Y-1.4437
X3.2625Y-1.5437
X3.2625Y-1.6438
X3.8625Y-1.0437
X3.8625Y-1.1438
X3.8625Y-1.2437
X3.8625Y-1.3438
X3.8625Y-1.4437
X3.8625Y-1.5437
X3.8625Y-1.6438
X7.2313Y-1.0437
X7.2313Y-1.1438
X7.2313Y-1.2437
X7.2313Y-1.3438
X7.2313Y-1.4437
X7.2313Y-1.5437
X7.2313Y-1.6438
X7.8312Y-1.0437
X7.8312Y-1.1438
X7.8312Y-1.2437
X7.8312Y-1.3438
X7.8312Y-1.4437
X7.8312Y-1.5437
X7.8312Y-1.6438
X8.1875Y-1.6061
X8.1875Y-1.7061
T5
X1.1625Y-1.2125
X1.1625Y-1.9625
X1.1625Y-2.7125
X1.1625Y-3.4625
X1.4125Y-1.1125
X1.4125Y-1.8625
X1.4125Y-2.6125
X1.4125Y-3.3625
X1.9125Y-1.2125
X1.9125Y-1.9625
X1.9125Y-2.7125
X1.9125Y-3.4625
X2.1625Y-1.1125
X2.1625Y-1.8625
X2.1625Y-2.6125
X2.1625Y-3.3625
X2.6625Y-1.2125
X2.6625Y-1.9625
X2.6625Y-2.7125
X2.6625Y-3.4625
X2.9125Y-1.1125
X2.9125Y-1.8625
X2.9125Y-2.6125
X2.9125Y-3.3625
X3.4125Y-1.2125
X3.4125Y-1.9625
X3.4125Y-3.4625
X3.4625Y-3.0125
X3.6625Y-1.1125
X3.6625Y-1.8625
X3.6625Y-3.3625
X3.7125Y-2.9125
X4.1625Y-1.2125
X4.1625Y-1.9625
X4.1625Y-3.4625
X4.2125Y-3.0125
X4.4125Y-1.1125
X4.4125Y-1.8625
X4.4125Y-3.3625
X4.4625Y-2.9125
X4.5375Y-3.4625
X4.7875Y-3.3625
X4.9125Y-1.2125
X4.9125Y-1.9625
X4.9125Y-3.4625
X4.9625Y-3.0125
X5.1625Y-1.1125
X5.1625Y-1.8625
X5.1625Y-3.3625
X5.2125Y-2.9125
X5.8812Y-1.2125
X5.8812Y-1.9625
X5.8812Y-3.4625
X5.9312Y-3.0125
X6.1312Y-1.1125
X6.1312Y-1.8625
X6.1312Y-3.3625
X6.1812Y-2.9125
X6.2562Y-3.4625
X6.5062Y-3.3625
X6.6312Y-1.2125
X6.6312Y-1.9625
X6.6312Y-3.4625
X6.6812Y-3.0125
X6.8812Y-1.1125
X6.8812Y-1.8625
X6.8812Y-3.3625
X6.9312Y-2.9125
X7.3812Y-1.2125
X7.3812Y-1.9625
X7.3812Y-3.4625
X7.4312Y-3.0125
X7.6312Y-1.1125
X7.6312Y-1.8625
X7.6312Y-3.3625
X7.6812Y-2.9125
X8.1312Y-1.2125
X8.1312Y-1.9625
X8.1312Y-2.7125
X8.1312Y-3.4625
X8.3812Y-1.1125
X8.3812Y-1.8625
X8.3812Y-2.6125
X8.3812Y-3.3625
X8.8812Y-1.2125
X8.8812Y-1.9625
X8.8812Y-2.7125
X8.8812Y-3.4625
X9.1312Y-1.1125
X9.1312Y-1.8625
X9.1312Y-2.6125
X9.1312Y-3.3625
X9.6312Y-1.2125
X9.6312Y-1.9625
X9.6312Y-2.7125
X9.6312Y-3.4625
X9.8812Y-1.1125
X9.8812Y-1.8625
X9.8812Y-2.6125
X9.8812Y-3.3625
T6
X3.5625Y-3.8375
X4.2188Y-3.8375
X5.0625Y-3.8375
X5.1562Y-3.8375
X5.9375Y-3.8375
X6.0312Y-3.8375
X6.875Y-3.8375
X7.5312Y-3.8375
T0
M30
