%TF.GenerationSoftware,KiCad,Pcbnew,(7.0.0)*%
%TF.CreationDate,2024-02-09T22:05:54+01:00*%
%TF.ProjectId,graham cracker,67726168-616d-4206-9372-61636b65722e,rev?*%
%TF.SameCoordinates,Original*%
%TF.FileFunction,Soldermask,Top*%
%TF.FilePolarity,Negative*%
%FSLAX46Y46*%
G04 Gerber Fmt 4.6, Leading zero omitted, Abs format (unit mm)*
G04 Created by KiCad (PCBNEW (7.0.0)) date 2024-02-09 22:05:54*
%MOMM*%
%LPD*%
G01*
G04 APERTURE LIST*
G04 Aperture macros list*
%AMRoundRect*
0 Rectangle with rounded corners*
0 $1 Rounding radius*
0 $2 $3 $4 $5 $6 $7 $8 $9 X,Y pos of 4 corners*
0 Add a 4 corners polygon primitive as box body*
4,1,4,$2,$3,$4,$5,$6,$7,$8,$9,$2,$3,0*
0 Add four circle primitives for the rounded corners*
1,1,$1+$1,$2,$3*
1,1,$1+$1,$4,$5*
1,1,$1+$1,$6,$7*
1,1,$1+$1,$8,$9*
0 Add four rect primitives between the rounded corners*
20,1,$1+$1,$2,$3,$4,$5,0*
20,1,$1+$1,$4,$5,$6,$7,0*
20,1,$1+$1,$6,$7,$8,$9,0*
20,1,$1+$1,$8,$9,$2,$3,0*%
G04 Aperture macros list end*
%ADD10C,0.500000*%
%ADD11C,1.750000*%
%ADD12C,3.987800*%
%ADD13C,2.200000*%
%ADD14C,2.400000*%
%ADD15R,1.300000X1.778000*%
%ADD16O,1.300000X1.778000*%
%ADD17R,1.700000X1.700000*%
%ADD18O,1.700000X1.700000*%
%ADD19C,0.850000*%
%ADD20RoundRect,0.250000X0.625000X-0.350000X0.625000X0.350000X-0.625000X0.350000X-0.625000X-0.350000X0*%
%ADD21O,1.750000X1.200000*%
%ADD22RoundRect,0.250000X-0.625000X0.350000X-0.625000X-0.350000X0.625000X-0.350000X0.625000X0.350000X0*%
G04 APERTURE END LIST*
D10*
%TO.C,REF\u002A\u002A*%
X238868750Y-35778250D03*
X238868750Y-36518250D03*
X238868750Y-37945250D03*
X238868750Y-38685250D03*
%TD*%
D11*
%TO.C,MX29*%
X114617500Y-71437500D03*
D12*
X109537500Y-71437500D03*
D11*
X104457500Y-71437500D03*
%TD*%
%TO.C,MX11*%
X224313750Y-33337500D03*
D12*
X229393750Y-33337500D03*
D11*
X234473750Y-33337500D03*
%TD*%
%TO.C,MX22*%
X205263750Y-52387500D03*
D12*
X210343750Y-52387500D03*
D11*
X215423750Y-52387500D03*
%TD*%
%TO.C,MX6*%
X123507500Y-33337500D03*
D12*
X128587500Y-33337500D03*
D11*
X133667500Y-33337500D03*
%TD*%
%TO.C,MX26*%
X47307500Y-71437500D03*
D12*
X52387500Y-71437500D03*
D11*
X57467500Y-71437500D03*
%TD*%
D12*
%TO.C,S3*%
X174625000Y-82232500D03*
X150812500Y-82232500D03*
%TD*%
D11*
%TO.C,MX5*%
X104457500Y-33337500D03*
D12*
X109537500Y-33337500D03*
D11*
X114617500Y-33337500D03*
%TD*%
%TO.C,MX36*%
X243363750Y-71437500D03*
D12*
X248443750Y-71437500D03*
D11*
X253523750Y-71437500D03*
%TD*%
D10*
%TO.C,REF\u002A\u002A*%
X42812500Y-54828250D03*
X42812500Y-55568250D03*
X42812500Y-56995250D03*
X42812500Y-57735250D03*
%TD*%
D11*
%TO.C,MX44*%
X148113750Y-90487500D03*
D12*
X153193750Y-90487500D03*
D11*
X158273750Y-90487500D03*
%TD*%
%TO.C,MX23*%
X224313750Y-52387500D03*
D12*
X229393750Y-52387500D03*
D11*
X234473750Y-52387500D03*
%TD*%
D12*
%TO.C,S4*%
X191293750Y-82232500D03*
X153193750Y-82232500D03*
%TD*%
D11*
%TO.C,MX32*%
X177323750Y-71437500D03*
D12*
X172243750Y-71437500D03*
D11*
X167163750Y-71437500D03*
%TD*%
%TO.C,MX2*%
X47307500Y-33337500D03*
D12*
X52387500Y-33337500D03*
D11*
X57467500Y-33337500D03*
%TD*%
%TO.C,MX45*%
X157638750Y-90487500D03*
D12*
X162718750Y-90487500D03*
D11*
X167798750Y-90487500D03*
%TD*%
%TO.C,MX15*%
X66357500Y-52387500D03*
D12*
X71437500Y-52387500D03*
D11*
X76517500Y-52387500D03*
%TD*%
%TO.C,MX41*%
X104457500Y-90487500D03*
D12*
X109537500Y-90487500D03*
D11*
X114617500Y-90487500D03*
%TD*%
%TO.C,MX48*%
X205263750Y-90487500D03*
D12*
X210343750Y-90487500D03*
D11*
X215423750Y-90487500D03*
%TD*%
%TO.C,MX7*%
X148113750Y-33337500D03*
D12*
X153193750Y-33337500D03*
D11*
X158273750Y-33337500D03*
%TD*%
%TO.C,MX13*%
X28257500Y-52387500D03*
D12*
X33337500Y-52387500D03*
D11*
X38417500Y-52387500D03*
%TD*%
%TO.C,MX33*%
X196373750Y-71437500D03*
D12*
X191293750Y-71437500D03*
D11*
X186213750Y-71437500D03*
%TD*%
%TO.C,MX9*%
X186213750Y-33337500D03*
D12*
X191293750Y-33337500D03*
D11*
X196373750Y-33337500D03*
%TD*%
%TO.C,MX21*%
X186213750Y-52387500D03*
D12*
X191293750Y-52387500D03*
D11*
X196373750Y-52387500D03*
%TD*%
%TO.C,MX40*%
X85407500Y-90487500D03*
D12*
X90487500Y-90487500D03*
D11*
X95567500Y-90487500D03*
%TD*%
%TO.C,MX37*%
X28257500Y-90487500D03*
D12*
X33337500Y-90487500D03*
D11*
X38417500Y-90487500D03*
%TD*%
%TO.C,MX28*%
X95567500Y-71437500D03*
D12*
X90487500Y-71437500D03*
D11*
X85407500Y-71437500D03*
%TD*%
%TO.C,MX17*%
X104457500Y-52387500D03*
D12*
X109537500Y-52387500D03*
D11*
X114617500Y-52387500D03*
%TD*%
D10*
%TO.C,REF\u002A\u002A*%
X42812500Y-35778250D03*
X42812500Y-36518250D03*
X42812500Y-37945250D03*
X42812500Y-38685250D03*
%TD*%
D11*
%TO.C,MX25*%
X28257500Y-71437500D03*
D12*
X33337500Y-71437500D03*
D11*
X38417500Y-71437500D03*
%TD*%
D10*
%TO.C,REF\u002A\u002A*%
X238868750Y-73878250D03*
X238868750Y-74618250D03*
X238868750Y-76045250D03*
X238868750Y-76785250D03*
%TD*%
D12*
%TO.C,S1*%
X128587500Y-82232500D03*
X90487500Y-82232500D03*
%TD*%
D11*
%TO.C,MX1*%
X28257500Y-33337500D03*
D12*
X33337500Y-33337500D03*
D11*
X38417500Y-33337500D03*
%TD*%
%TO.C,MX20*%
X167163750Y-52387500D03*
D12*
X172243750Y-52387500D03*
D11*
X177323750Y-52387500D03*
%TD*%
D13*
%TO.C,H8*%
X219868750Y-80962500D03*
%TD*%
D11*
%TO.C,MX38*%
X47307500Y-90487500D03*
D12*
X52387500Y-90487500D03*
D11*
X57467500Y-90487500D03*
%TD*%
D12*
%TO.C,S2*%
X130968750Y-82232500D03*
X107156250Y-82232500D03*
%TD*%
D11*
%TO.C,MX31*%
X158273750Y-71437500D03*
D12*
X153193750Y-71437500D03*
D11*
X148113750Y-71437500D03*
%TD*%
D10*
%TO.C,MB5*%
X138118750Y-92976250D03*
X138118750Y-93716250D03*
X138118750Y-94456250D03*
X138118750Y-95196250D03*
X138118750Y-95936250D03*
D14*
X140918750Y-94456250D03*
D10*
X143718750Y-93346250D03*
X143718750Y-94086250D03*
X143718750Y-94826250D03*
X143718750Y-95566250D03*
%TD*%
D13*
%TO.C,H4*%
X119062500Y-80962500D03*
%TD*%
D11*
%TO.C,MX24*%
X243363750Y-52387500D03*
D12*
X248443750Y-52387500D03*
D11*
X253523750Y-52387500D03*
%TD*%
D13*
%TO.C,H3*%
X61912500Y-80962500D03*
%TD*%
%TO.C,H1*%
X61912500Y-42862500D03*
%TD*%
%TO.C,H2*%
X119062500Y-42862500D03*
%TD*%
D10*
%TO.C,MB5*%
X138118750Y-27888750D03*
X138118750Y-28628750D03*
X138118750Y-29368750D03*
X138118750Y-30108750D03*
X138118750Y-30848750D03*
D14*
X140918750Y-29368750D03*
D10*
X143718750Y-28258750D03*
X143718750Y-28998750D03*
X143718750Y-29738750D03*
X143718750Y-30478750D03*
%TD*%
D11*
%TO.C,MX19*%
X148113750Y-52387500D03*
D12*
X153193750Y-52387500D03*
D11*
X158273750Y-52387500D03*
%TD*%
D10*
%TO.C,REF\u002A\u002A*%
X238868750Y-92928250D03*
X238868750Y-93668250D03*
X238868750Y-95095250D03*
X238868750Y-95835250D03*
%TD*%
D11*
%TO.C,MX39*%
X66357500Y-90487500D03*
D12*
X71437500Y-90487500D03*
D11*
X76517500Y-90487500D03*
%TD*%
D13*
%TO.C,H5*%
X162718750Y-42862500D03*
%TD*%
D11*
%TO.C,MX4*%
X85407500Y-33337500D03*
D12*
X90487500Y-33337500D03*
D11*
X95567500Y-33337500D03*
%TD*%
D13*
%TO.C,H6*%
X219868750Y-42862500D03*
%TD*%
D11*
%TO.C,MX12*%
X243363750Y-33337500D03*
D12*
X248443750Y-33337500D03*
D11*
X253523750Y-33337500D03*
%TD*%
%TO.C,MX34*%
X205263750Y-71437500D03*
D12*
X210343750Y-71437500D03*
D11*
X215423750Y-71437500D03*
%TD*%
%TO.C,MX46*%
X167163750Y-90487500D03*
D12*
X172243750Y-90487500D03*
D11*
X177323750Y-90487500D03*
%TD*%
%TO.C,MX8*%
X167163750Y-33337500D03*
D12*
X172243750Y-33337500D03*
D11*
X177323750Y-33337500D03*
%TD*%
%TO.C,MX27*%
X66357500Y-71437500D03*
D12*
X71437500Y-71437500D03*
D11*
X76517500Y-71437500D03*
%TD*%
%TO.C,MX10*%
X205263750Y-33337500D03*
D12*
X210343750Y-33337500D03*
D11*
X215423750Y-33337500D03*
%TD*%
D13*
%TO.C,H7*%
X162718750Y-80962500D03*
%TD*%
D11*
%TO.C,MX18*%
X123507500Y-52387500D03*
D12*
X128587500Y-52387500D03*
D11*
X133667500Y-52387500D03*
%TD*%
%TO.C,MX30*%
X133667500Y-71437500D03*
D12*
X128587500Y-71437500D03*
D11*
X123507500Y-71437500D03*
%TD*%
%TO.C,MX43*%
X113982500Y-90487500D03*
D12*
X119062500Y-90487500D03*
D11*
X124142500Y-90487500D03*
%TD*%
%TO.C,MX16*%
X85407500Y-52387500D03*
D12*
X90487500Y-52387500D03*
D11*
X95567500Y-52387500D03*
%TD*%
%TO.C,MX47*%
X186213750Y-90487500D03*
D12*
X191293750Y-90487500D03*
D11*
X196373750Y-90487500D03*
%TD*%
%TO.C,MX3*%
X66357500Y-33337500D03*
D12*
X71437500Y-33337500D03*
D11*
X76517500Y-33337500D03*
%TD*%
%TO.C,MX14*%
X47307500Y-52387500D03*
D12*
X52387500Y-52387500D03*
D11*
X57467500Y-52387500D03*
%TD*%
D10*
%TO.C,REF\u002A\u002A*%
X42812500Y-73878250D03*
X42812500Y-74618250D03*
X42812500Y-76045250D03*
X42812500Y-76785250D03*
%TD*%
D11*
%TO.C,MX49*%
X224313750Y-90487500D03*
D12*
X229393750Y-90487500D03*
D11*
X234473750Y-90487500D03*
%TD*%
%TO.C,MX35*%
X224313750Y-71437500D03*
D12*
X229393750Y-71437500D03*
D11*
X234473750Y-71437500D03*
%TD*%
%TO.C,MX42*%
X123507500Y-90487500D03*
D12*
X128587500Y-90487500D03*
D11*
X133667500Y-90487500D03*
%TD*%
%TO.C,MX50*%
X243363750Y-90487500D03*
D12*
X248443750Y-90487500D03*
D11*
X253523750Y-90487500D03*
%TD*%
D10*
%TO.C,REF\u002A\u002A*%
X42812500Y-92928250D03*
X42812500Y-93668250D03*
X42812500Y-95095250D03*
X42812500Y-95835250D03*
%TD*%
%TO.C,REF\u002A\u002A*%
X238868750Y-54828250D03*
X238868750Y-55568250D03*
X238868750Y-56995250D03*
X238868750Y-57735250D03*
%TD*%
D15*
%TO.C,D31*%
X161131249Y-76818749D03*
D16*
X161131249Y-70818749D03*
%TD*%
D15*
%TO.C,D38*%
X55562499Y-94281249D03*
D16*
X55562499Y-88281249D03*
%TD*%
D15*
%TO.C,D47*%
X232568749Y-94281249D03*
D16*
X232568749Y-88281249D03*
%TD*%
D15*
%TO.C,D37*%
X36512499Y-94281249D03*
D16*
X36512499Y-88281249D03*
%TD*%
D15*
%TO.C,D21*%
X183356249Y-47006249D03*
D16*
X183356249Y-53006249D03*
%TD*%
D15*
%TO.C,D19*%
X161131249Y-47006249D03*
D16*
X161131249Y-53006249D03*
%TD*%
D15*
%TO.C,D17*%
X117474999Y-47006249D03*
D16*
X117474999Y-53006249D03*
%TD*%
D15*
%TO.C,D32*%
X164306249Y-76818749D03*
D16*
X164306249Y-70818749D03*
%TD*%
D15*
%TO.C,D7*%
X156368749Y-37131249D03*
D16*
X156368749Y-31131249D03*
%TD*%
D15*
%TO.C,D36*%
X251618749Y-75231249D03*
D16*
X251618749Y-69231249D03*
%TD*%
D15*
%TO.C,D28*%
X98424999Y-76818749D03*
D16*
X98424999Y-70818749D03*
%TD*%
D15*
%TO.C,D4*%
X101599999Y-37131249D03*
D16*
X101599999Y-31131249D03*
%TD*%
D15*
%TO.C,D9*%
X202606249Y-37131249D03*
D16*
X202606249Y-31131249D03*
%TD*%
D15*
%TO.C,D33*%
X183356249Y-76818749D03*
D16*
X183356249Y-70818749D03*
%TD*%
D15*
%TO.C,D39*%
X74612499Y-94281249D03*
D16*
X74612499Y-88281249D03*
%TD*%
D15*
%TO.C,D35*%
X232568749Y-75231249D03*
D16*
X232568749Y-69231249D03*
%TD*%
D15*
%TO.C,D46*%
X213518749Y-94281249D03*
D16*
X213518749Y-88281249D03*
%TD*%
D15*
%TO.C,D25*%
X36512499Y-75231249D03*
D16*
X36512499Y-69231249D03*
%TD*%
D15*
%TO.C,D29*%
X117474999Y-76818749D03*
D16*
X117474999Y-70818749D03*
%TD*%
D15*
%TO.C,D30*%
X120649999Y-76818749D03*
D16*
X120649999Y-70818749D03*
%TD*%
D17*
%TO.C,J4*%
X207962499Y-40793749D03*
D18*
X207962499Y-43333749D03*
%TD*%
D15*
%TO.C,D3*%
X74612499Y-37131249D03*
D16*
X74612499Y-31131249D03*
%TD*%
D15*
%TO.C,D40*%
X93662499Y-94281249D03*
D16*
X93662499Y-88281249D03*
%TD*%
D15*
%TO.C,D11*%
X232568749Y-37131249D03*
D16*
X232568749Y-31131249D03*
%TD*%
D15*
%TO.C,D18*%
X121443749Y-47006249D03*
D16*
X121443749Y-53006249D03*
%TD*%
D15*
%TO.C,D13*%
X36512499Y-56181249D03*
D16*
X36512499Y-50181249D03*
%TD*%
D15*
%TO.C,D42*%
X135731249Y-94281249D03*
D16*
X135731249Y-88281249D03*
%TD*%
D15*
%TO.C,D12*%
X251618749Y-37131249D03*
D16*
X251618749Y-31131249D03*
%TD*%
D15*
%TO.C,D43*%
X146049999Y-94281249D03*
D16*
X146049999Y-88281249D03*
%TD*%
D15*
%TO.C,D1*%
X36512499Y-37131249D03*
D16*
X36512499Y-31131249D03*
%TD*%
D15*
%TO.C,D15*%
X74612499Y-56181249D03*
D16*
X74612499Y-50181249D03*
%TD*%
D15*
%TO.C,D23*%
X232568749Y-56181249D03*
D16*
X232568749Y-50181249D03*
%TD*%
D15*
%TO.C,D41*%
X102393749Y-94281249D03*
D16*
X102393749Y-88281249D03*
%TD*%
D15*
%TO.C,D48*%
X251618749Y-94281249D03*
D16*
X251618749Y-88281249D03*
%TD*%
D15*
%TO.C,D10*%
X213518749Y-37131249D03*
D16*
X213518749Y-31131249D03*
%TD*%
D15*
%TO.C,D24*%
X251618749Y-56181249D03*
D16*
X251618749Y-50181249D03*
%TD*%
D15*
%TO.C,D6*%
X131762499Y-37131249D03*
D16*
X131762499Y-31131249D03*
%TD*%
D15*
%TO.C,D44*%
X175418749Y-94281249D03*
D16*
X175418749Y-88281249D03*
%TD*%
D19*
%TO.C,PSW2*%
X221368750Y-25400000D03*
X218368750Y-25400000D03*
%TD*%
D15*
%TO.C,D45*%
X194468749Y-94281249D03*
D16*
X194468749Y-88281249D03*
%TD*%
D15*
%TO.C,D16*%
X98424999Y-47006249D03*
D16*
X98424999Y-53006249D03*
%TD*%
D15*
%TO.C,D5*%
X112712499Y-37131249D03*
D16*
X112712499Y-31131249D03*
%TD*%
D15*
%TO.C,D22*%
X213518749Y-56181249D03*
D16*
X213518749Y-50181249D03*
%TD*%
D15*
%TO.C,D2*%
X55562499Y-37131249D03*
D16*
X55562499Y-31131249D03*
%TD*%
D15*
%TO.C,D8*%
X175418749Y-37131249D03*
D16*
X175418749Y-31131249D03*
%TD*%
D15*
%TO.C,D34*%
X213518749Y-75231249D03*
D16*
X213518749Y-69231249D03*
%TD*%
D15*
%TO.C,D14*%
X55562499Y-56181249D03*
D16*
X55562499Y-50181249D03*
%TD*%
D20*
%TO.C,J2*%
X208825000Y-62912500D03*
D21*
X208824999Y-60912499D03*
%TD*%
D15*
%TO.C,D27*%
X74612499Y-75231249D03*
D16*
X74612499Y-69231249D03*
%TD*%
D15*
%TO.C,D20*%
X164306249Y-47006249D03*
D16*
X164306249Y-53006249D03*
%TD*%
D17*
%TO.C,J3*%
X73818749Y-40793749D03*
D18*
X73818749Y-43333749D03*
%TD*%
D19*
%TO.C,PSW1*%
X63412500Y-25400000D03*
X60412500Y-25400000D03*
%TD*%
D22*
%TO.C,J1*%
X72956250Y-60912500D03*
D21*
X72956249Y-62912499D03*
%TD*%
D15*
%TO.C,D26*%
X55562499Y-75231249D03*
D16*
X55562499Y-69231249D03*
%TD*%
M02*
