%TF.GenerationSoftware,KiCad,Pcbnew,(7.0.0)*%
%TF.CreationDate,2024-02-09T22:05:53+01:00*%
%TF.ProjectId,graham cracker,67726168-616d-4206-9372-61636b65722e,rev?*%
%TF.SameCoordinates,Original*%
%TF.FileFunction,Paste,Bot*%
%TF.FilePolarity,Positive*%
%FSLAX46Y46*%
G04 Gerber Fmt 4.6, Leading zero omitted, Abs format (unit mm)*
G04 Created by KiCad (PCBNEW (7.0.0)) date 2024-02-09 22:05:53*
%MOMM*%
%LPD*%
G01*
G04 APERTURE LIST*
G04 Aperture macros list*
%AMRoundRect*
0 Rectangle with rounded corners*
0 $1 Rounding radius*
0 $2 $3 $4 $5 $6 $7 $8 $9 X,Y pos of 4 corners*
0 Add a 4 corners polygon primitive as box body*
4,1,4,$2,$3,$4,$5,$6,$7,$8,$9,$2,$3,0*
0 Add four circle primitives for the rounded corners*
1,1,$1+$1,$2,$3*
1,1,$1+$1,$4,$5*
1,1,$1+$1,$6,$7*
1,1,$1+$1,$8,$9*
0 Add four rect primitives between the rounded corners*
20,1,$1+$1,$2,$3,$4,$5,0*
20,1,$1+$1,$4,$5,$6,$7,0*
20,1,$1+$1,$6,$7,$8,$9,0*
20,1,$1+$1,$8,$9,$2,$3,0*%
G04 Aperture macros list end*
%ADD10R,1.300000X1.400000*%
%ADD11RoundRect,0.090000X-0.210000X-0.535000X0.210000X-0.535000X0.210000X0.535000X-0.210000X0.535000X0*%
%ADD12RoundRect,0.105000X-0.445000X0.245000X-0.445000X-0.245000X0.445000X-0.245000X0.445000X0.245000X0*%
G04 APERTURE END LIST*
D10*
%TO.C,D31*%
X161131249Y-75593749D03*
X161131249Y-72043749D03*
%TD*%
%TO.C,D38*%
X55562499Y-93056249D03*
X55562499Y-89506249D03*
%TD*%
%TO.C,D47*%
X232568749Y-93056249D03*
X232568749Y-89506249D03*
%TD*%
%TO.C,D37*%
X36512499Y-93056249D03*
X36512499Y-89506249D03*
%TD*%
%TO.C,D21*%
X183356249Y-48231249D03*
X183356249Y-51781249D03*
%TD*%
%TO.C,D19*%
X161131249Y-48231249D03*
X161131249Y-51781249D03*
%TD*%
%TO.C,D17*%
X117474999Y-48231249D03*
X117474999Y-51781249D03*
%TD*%
%TO.C,D32*%
X164306249Y-75593749D03*
X164306249Y-72043749D03*
%TD*%
%TO.C,D7*%
X156368749Y-35906249D03*
X156368749Y-32356249D03*
%TD*%
%TO.C,D36*%
X251618749Y-74006249D03*
X251618749Y-70456249D03*
%TD*%
%TO.C,D28*%
X98424999Y-75593749D03*
X98424999Y-72043749D03*
%TD*%
%TO.C,D4*%
X101599999Y-35906249D03*
X101599999Y-32356249D03*
%TD*%
%TO.C,D9*%
X202606249Y-35906249D03*
X202606249Y-32356249D03*
%TD*%
%TO.C,D33*%
X183356249Y-75593749D03*
X183356249Y-72043749D03*
%TD*%
%TO.C,D39*%
X74612499Y-93056249D03*
X74612499Y-89506249D03*
%TD*%
%TO.C,D35*%
X232568749Y-74006249D03*
X232568749Y-70456249D03*
%TD*%
%TO.C,D46*%
X213518749Y-93056249D03*
X213518749Y-89506249D03*
%TD*%
%TO.C,D25*%
X36512499Y-74006249D03*
X36512499Y-70456249D03*
%TD*%
%TO.C,D29*%
X117474999Y-75593749D03*
X117474999Y-72043749D03*
%TD*%
%TO.C,D30*%
X120649999Y-75593749D03*
X120649999Y-72043749D03*
%TD*%
%TO.C,D3*%
X74612499Y-35906249D03*
X74612499Y-32356249D03*
%TD*%
%TO.C,D40*%
X93662499Y-93056249D03*
X93662499Y-89506249D03*
%TD*%
%TO.C,D11*%
X232568749Y-35906249D03*
X232568749Y-32356249D03*
%TD*%
%TO.C,D18*%
X121443749Y-48231249D03*
X121443749Y-51781249D03*
%TD*%
%TO.C,D13*%
X36512499Y-54956249D03*
X36512499Y-51406249D03*
%TD*%
%TO.C,D42*%
X135731249Y-93056249D03*
X135731249Y-89506249D03*
%TD*%
%TO.C,D12*%
X251618749Y-35906249D03*
X251618749Y-32356249D03*
%TD*%
%TO.C,D43*%
X146049999Y-93056249D03*
X146049999Y-89506249D03*
%TD*%
%TO.C,D1*%
X36512499Y-35906249D03*
X36512499Y-32356249D03*
%TD*%
%TO.C,D15*%
X74612499Y-54956249D03*
X74612499Y-51406249D03*
%TD*%
%TO.C,D23*%
X232568749Y-54956249D03*
X232568749Y-51406249D03*
%TD*%
%TO.C,D41*%
X102393749Y-93056249D03*
X102393749Y-89506249D03*
%TD*%
%TO.C,D48*%
X251618749Y-93056249D03*
X251618749Y-89506249D03*
%TD*%
%TO.C,D10*%
X213518749Y-35906249D03*
X213518749Y-32356249D03*
%TD*%
%TO.C,D24*%
X251618749Y-54956249D03*
X251618749Y-51406249D03*
%TD*%
%TO.C,D6*%
X131762499Y-35906249D03*
X131762499Y-32356249D03*
%TD*%
%TO.C,D44*%
X175418749Y-93056249D03*
X175418749Y-89506249D03*
%TD*%
D11*
%TO.C,PSW2*%
X217618750Y-27400000D03*
X220618750Y-27400000D03*
X222118750Y-27400000D03*
D12*
X223568750Y-26550000D03*
X223568750Y-24250000D03*
X216168750Y-26550000D03*
X216168750Y-24250000D03*
%TD*%
D10*
%TO.C,D45*%
X194468749Y-93056249D03*
X194468749Y-89506249D03*
%TD*%
%TO.C,D16*%
X98424999Y-48231249D03*
X98424999Y-51781249D03*
%TD*%
%TO.C,D5*%
X112712499Y-35906249D03*
X112712499Y-32356249D03*
%TD*%
%TO.C,D22*%
X213518749Y-54956249D03*
X213518749Y-51406249D03*
%TD*%
%TO.C,D2*%
X55562499Y-35906249D03*
X55562499Y-32356249D03*
%TD*%
%TO.C,D8*%
X175418749Y-35906249D03*
X175418749Y-32356249D03*
%TD*%
%TO.C,D34*%
X213518749Y-74006249D03*
X213518749Y-70456249D03*
%TD*%
%TO.C,D14*%
X55562499Y-54956249D03*
X55562499Y-51406249D03*
%TD*%
%TO.C,D27*%
X74612499Y-74006249D03*
X74612499Y-70456249D03*
%TD*%
%TO.C,D20*%
X164306249Y-48231249D03*
X164306249Y-51781249D03*
%TD*%
D11*
%TO.C,PSW1*%
X59662500Y-27400000D03*
X62662500Y-27400000D03*
X64162500Y-27400000D03*
D12*
X65612500Y-26550000D03*
X65612500Y-24250000D03*
X58212500Y-26550000D03*
X58212500Y-24250000D03*
%TD*%
D10*
%TO.C,D26*%
X55562499Y-74006249D03*
X55562499Y-70456249D03*
%TD*%
M02*
