M48
; DRILL file {KiCad (7.0.0)} date Fri Feb  9 22:05:57 2024
; FORMAT={-:-/ absolute / inch / decimal}
; #@! TF.CreationDate,2024-02-09T22:05:57+01:00
; #@! TF.GenerationSoftware,Kicad,Pcbnew,(7.0.0)
; #@! TF.FileFunction,NonPlated,1,2,NPTH
FMAT,2
INCH
; #@! TA.AperFunction,NonPlated,NPTH,ComponentDrill
T1C0.0197
; #@! TA.AperFunction,NonPlated,NPTH,ComponentDrill
T2C0.0335
; #@! TA.AperFunction,NonPlated,NPTH,ComponentDrill
T3C0.0689
; #@! TA.AperFunction,NonPlated,NPTH,ComponentDrill
T4C0.0866
; #@! TA.AperFunction,NonPlated,NPTH,ComponentDrill
T5C0.0945
; #@! TA.AperFunction,NonPlated,NPTH,ComponentDrill
T6C0.1570
%
G90
G05
T1
X1.6855Y-1.4086
X1.6855Y-1.4377
X1.6855Y-1.4939
X1.6855Y-1.523
X1.6855Y-2.1586
X1.6855Y-2.1877
X1.6855Y-2.2439
X1.6855Y-2.273
X1.6855Y-2.9086
X1.6855Y-2.9377
X1.6855Y-2.9939
X1.6855Y-3.023
X1.6855Y-3.6586
X1.6855Y-3.6877
X1.6855Y-3.7439
X1.6855Y-3.773
X5.4377Y-1.098
X5.4377Y-1.1271
X5.4377Y-1.1562
X5.4377Y-1.1854
X5.4377Y-1.2145
X5.4377Y-3.6605
X5.4377Y-3.6896
X5.4377Y-3.7188
X5.4377Y-3.7479
X5.4377Y-3.777
X5.6582Y-1.1125
X5.6582Y-1.1417
X5.6582Y-1.1708
X5.6582Y-1.2
X5.6582Y-3.675
X5.6582Y-3.7042
X5.6582Y-3.7333
X5.6582Y-3.7625
X9.4043Y-1.4086
X9.4043Y-1.4377
X9.4043Y-1.4939
X9.4043Y-1.523
X9.4043Y-2.1586
X9.4043Y-2.1877
X9.4043Y-2.2439
X9.4043Y-2.273
X9.4043Y-2.9086
X9.4043Y-2.9377
X9.4043Y-2.9939
X9.4043Y-3.023
X9.4043Y-3.6586
X9.4043Y-3.6877
X9.4043Y-3.7439
X9.4043Y-3.773
T2
X2.3784Y-1.0
X2.4966Y-1.0
X8.5972Y-1.0
X8.7153Y-1.0
T3
X1.1125Y-1.3125
X1.1125Y-2.0625
X1.1125Y-2.8125
X1.1125Y-3.5625
X1.5125Y-1.3125
X1.5125Y-2.0625
X1.5125Y-2.8125
X1.5125Y-3.5625
X1.8625Y-1.3125
X1.8625Y-2.0625
X1.8625Y-2.8125
X1.8625Y-3.5625
X2.2625Y-1.3125
X2.2625Y-2.0625
X2.2625Y-2.8125
X2.2625Y-3.5625
X2.6125Y-1.3125
X2.6125Y-2.0625
X2.6125Y-2.8125
X2.6125Y-3.5625
X3.0125Y-1.3125
X3.0125Y-2.0625
X3.0125Y-2.8125
X3.0125Y-3.5625
X3.3625Y-1.3125
X3.3625Y-2.0625
X3.3625Y-2.8125
X3.3625Y-3.5625
X3.7625Y-1.3125
X3.7625Y-2.0625
X3.7625Y-2.8125
X3.7625Y-3.5625
X4.1125Y-1.3125
X4.1125Y-2.0625
X4.1125Y-2.8125
X4.1125Y-3.5625
X4.4875Y-3.5625
X4.5125Y-1.3125
X4.5125Y-2.0625
X4.5125Y-2.8125
X4.5125Y-3.5625
X4.8625Y-1.3125
X4.8625Y-2.0625
X4.8625Y-2.8125
X4.8625Y-3.5625
X4.8875Y-3.5625
X5.2625Y-1.3125
X5.2625Y-2.0625
X5.2625Y-2.8125
X5.2625Y-3.5625
X5.8312Y-1.3125
X5.8312Y-2.0625
X5.8312Y-2.8125
X5.8312Y-3.5625
X6.2062Y-3.5625
X6.2313Y-1.3125
X6.2313Y-2.0625
X6.2313Y-2.8125
X6.2313Y-3.5625
X6.5812Y-1.3125
X6.5812Y-2.0625
X6.5812Y-2.8125
X6.5812Y-3.5625
X6.6063Y-3.5625
X6.9813Y-1.3125
X6.9813Y-2.0625
X6.9813Y-2.8125
X6.9813Y-3.5625
X7.3312Y-1.3125
X7.3312Y-2.0625
X7.3312Y-2.8125
X7.3312Y-3.5625
X7.7313Y-1.3125
X7.7313Y-2.0625
X7.7313Y-2.8125
X7.7313Y-3.5625
X8.0812Y-1.3125
X8.0812Y-2.0625
X8.0812Y-2.8125
X8.0812Y-3.5625
X8.4812Y-1.3125
X8.4812Y-2.0625
X8.4812Y-2.8125
X8.4812Y-3.5625
X8.8312Y-1.3125
X8.8312Y-2.0625
X8.8312Y-2.8125
X8.8312Y-3.5625
X9.2312Y-1.3125
X9.2312Y-2.0625
X9.2312Y-2.8125
X9.2312Y-3.5625
X9.5812Y-1.3125
X9.5812Y-2.0625
X9.5812Y-2.8125
X9.5812Y-3.5625
X9.9812Y-1.3125
X9.9812Y-2.0625
X9.9812Y-2.8125
X9.9812Y-3.5625
T4
X2.4375Y-1.6875
X2.4375Y-3.1875
X4.6875Y-1.6875
X4.6875Y-3.1875
X6.4062Y-1.6875
X6.4062Y-3.1875
X8.6562Y-1.6875
X8.6562Y-3.1875
T5
X5.548Y-1.1562
X5.548Y-3.7188
T6
X1.3125Y-1.3125
X1.3125Y-2.0625
X1.3125Y-2.8125
X1.3125Y-3.5625
X2.0625Y-1.3125
X2.0625Y-2.0625
X2.0625Y-2.8125
X2.0625Y-3.5625
X2.8125Y-1.3125
X2.8125Y-2.0625
X2.8125Y-2.8125
X2.8125Y-3.5625
X3.5625Y-1.3125
X3.5625Y-2.0625
X3.5625Y-2.8125
X3.5625Y-3.2375
X3.5625Y-3.5625
X4.2188Y-3.2375
X4.3125Y-1.3125
X4.3125Y-2.0625
X4.3125Y-2.8125
X4.3125Y-3.5625
X4.6875Y-3.5625
X5.0625Y-1.3125
X5.0625Y-2.0625
X5.0625Y-2.8125
X5.0625Y-3.2375
X5.0625Y-3.5625
X5.1562Y-3.2375
X5.9375Y-3.2375
X6.0312Y-1.3125
X6.0312Y-2.0625
X6.0312Y-2.8125
X6.0312Y-3.2375
X6.0312Y-3.5625
X6.4062Y-3.5625
X6.7812Y-1.3125
X6.7812Y-2.0625
X6.7812Y-2.8125
X6.7812Y-3.5625
X6.875Y-3.2375
X7.5312Y-1.3125
X7.5312Y-2.0625
X7.5312Y-2.8125
X7.5312Y-3.2375
X7.5312Y-3.5625
X8.2812Y-1.3125
X8.2812Y-2.0625
X8.2812Y-2.8125
X8.2812Y-3.5625
X9.0312Y-1.3125
X9.0312Y-2.0625
X9.0312Y-2.8125
X9.0312Y-3.5625
X9.7812Y-1.3125
X9.7812Y-2.0625
X9.7812Y-2.8125
X9.7812Y-3.5625
T0
M30
